<?xml version="1.0" encoding="UTF-8" standalone="no"?>
<!DOCTYPE svg PUBLIC "-//W3C//DTD SVG 1.1//EN" "http://www.w3.org/Graphics/SVG/1.1/DTD/svg11.dtd">
<svg width="100%" height="100%" viewBox="0 0 16 16" version="1.1" xmlns="http://www.w3.org/2000/svg" xmlns:xlink="http://www.w3.org/1999/xlink" xml:space="preserve" xmlns:serif="http://www.serif.com/" style="fill-rule:evenodd;clip-rule:evenodd;stroke-linejoin:round;stroke-miterlimit:2;">
    <rect id="frame" x="0" y="0" width="16" height="16" style="fill:none;"/>
    <g>
        <path d="M7,1L3,5L7,5L7,1Z" style="fill:rgb(154,167,176);fill-opacity:0.8;"/>
    </g>
    <path d="M8.28,13.421C10.953,13.094 11.376,11.721 13,10.286L13,15L9.447,15C9.474,14.878 8.326,14.041 8.326,14.041L8.28,13.421ZM3,12.597C3.372,12.671 3.864,12.629 4.49,12.387C4.937,12.858 5.631,13.241 6.47,13.398L6.354,14.018C6.354,14.018 5.109,14.878 5.138,15L3,15L3,12.597ZM3,10.5C3.136,10.339 3.316,10.217 3.532,10.179C3.751,10.139 3.998,10.191 4.27,10.351C3.901,10.773 3.86,11.279 4.066,11.759C3.727,11.875 3.451,11.915 3.229,11.891C3.142,11.882 3.065,11.862 3,11.832L3,10.5ZM3,9.587L3,6L8,6L8,1L13,1L13,8.923C11.481,9.661 10.69,10.136 9.687,9.825C9.569,9.788 9.448,9.76 9.326,9.742C9.326,9.742 9.316,9.207 9.311,9.196C9.176,8.855 8.805,8.619 8.339,8.484C8.138,8.426 7.919,8.387 7.694,8.366C7.853,8.249 7.957,8.06 7.957,7.847C7.957,7.602 7.676,7.141 7.485,6.857C7.446,6.799 7.382,6.765 7.313,6.765C7.244,6.765 7.18,6.799 7.141,6.857C6.951,7.141 6.669,7.602 6.669,7.847C6.669,8.062 6.774,8.252 6.935,8.369C6.188,8.44 5.509,8.717 5.315,9.195C5.31,9.206 5.299,9.756 5.299,9.756C5.162,9.785 4.894,9.885 4.894,9.885C4.205,9.371 3.581,9.346 3.095,9.544C3.063,9.557 3.031,9.571 3,9.587Z" style="fill:rgb(154,167,176);fill-opacity:0.8;"/>
</svg>
